<?xml version="1.0" standalone="no"?>
<!DOCTYPE svg PUBLIC "-//W3C//DTD SVG 20010904//EN"
 "http://www.w3.org/TR/2001/REC-SVG-20010904/DTD/svg10.dtd">
<svg version="1.0" xmlns="http://www.w3.org/2000/svg"
 width="512.000000pt" height="512.000000pt" viewBox="0 0 512.000000 512.000000"
 preserveAspectRatio="xMidYMid meet">

<g transform="translate(0.000000,512.000000) scale(0.100000,-0.100000)"
fill="#000000" stroke="none">
<path d="M291 4990 c-68 -25 -113 -55 -169 -111 -52 -53 -104 -155 -106 -206
-1 -34 2 -38 24 -38 20 0 27 9 45 55 30 82 49 112 98 157 59 54 115 82 196 97
60 11 66 14 66 37 0 22 -4 24 -50 26 -30 2 -71 -5 -104 -17z"/>
<path d="M390 4799 c-64 -13 -119 -55 -152 -118 l-28 -53 0 -2173 0 -2173 28
-53 c17 -34 44 -65 71 -84 l43 -30 1230 -3 c1360 -3 1261 -7 1329 61 65 65 64
56 67 464 l3 372 842 3 c841 3 842 3 889 25 66 30 141 104 169 166 l24 52 0
1140 0 1140 -26 55 c-33 70 -89 126 -159 159 l-55 26 -842 3 -842 3 -3 432 -3
432 -27 46 c-34 58 -89 96 -157 109 -67 13 -2336 12 -2401 -1z m2448 -91 c20
-12 42 -38 53 -62 18 -40 19 -117 19 -2190 l0 -2150 -21 -42 c-11 -24 -35 -52
-53 -64 -33 -20 -43 -20 -1241 -20 l-1208 0 -34 21 c-18 12 -42 38 -53 60 -20
38 -20 69 -20 2196 0 2081 1 2160 19 2193 10 19 33 45 51 58 l33 22 1210 0
1210 0 35 -22z m1707 -1116 c88 -41 149 -118 161 -205 l7 -47 -867 0 -866 0 0
140 0 140 758 -2 757 -3 50 -23z m295 -652 l0 -330 -930 0 -930 0 0 330 0 330
930 0 930 0 0 -330z m-130 -1094 c0 -400 -4 -705 -9 -719 -18 -46 -44 -47
-910 -47 l-811 0 0 730 0 730 865 0 865 0 0 -694z"/>
<path d="M495 4610 c-17 -5 -44 -23 -60 -40 l-30 -31 0 -2084 0 -2084 30 -31
c16 -16 46 -35 66 -40 24 -7 419 -9 1116 -8 1020 3 1080 4 1106 21 16 10 37
32 47 50 20 31 20 68 20 2092 0 2024 0 2061 -20 2092 -40 66 -46 68 -334 71
-279 3 -328 -2 -382 -43 -18 -13 -46 -49 -63 -80 -48 -85 -47 -85 -401 -85
-244 0 -306 3 -329 15 -16 8 -46 43 -69 79 -29 47 -53 71 -84 88 -42 22 -52
23 -313 25 -148 1 -284 -2 -300 -7z m583 -83 c12 -7 41 -42 65 -77 31 -48 54
-71 87 -87 43 -22 52 -23 365 -23 291 0 324 2 361 19 42 19 78 59 108 118 30
60 45 63 350 63 273 0 275 0 290 -22 14 -20 16 -232 16 -2063 0 -1831 -2
-2043 -16 -2063 l-15 -22 -1094 0 -1094 0 -15 22 c-14 20 -16 232 -16 2063 0
1831 2 2043 16 2063 15 22 17 22 292 22 203 -1 283 -4 300 -13z"/>
<path d="M1096 567 c-10 -7 -16 -22 -14 -33 3 -18 17 -19 513 -19 496 0 510 1
513 19 9 45 -4 46 -513 46 -382 0 -485 -3 -499 -13z"/>
<path d="M1316 4604 c-9 -8 -16 -19 -16 -24 0 -5 7 -16 16 -24 23 -24 535 -24
558 -1 15 16 11 44 -8 57 -6 4 -129 8 -273 8 -225 0 -264 -2 -277 -16z"/>
<path d="M3924 1656 c-3 -14 -3 -30 1 -35 4 -8 115 -11 335 -11 322 0 329 0
335 20 15 49 5 50 -341 50 l-324 0 -6 -24z"/>
<path d="M3932 1388 c-18 -18 -14 -46 7 -58 27 -14 615 -14 642 0 21 12 25 40
7 58 -17 17 -639 17 -656 0z"/>
<path d="M4 4437 c-3 -8 -4 -49 -2 -93 3 -69 5 -79 22 -82 11 -3 26 4 33 14
16 21 17 127 3 155 -12 22 -48 26 -56 6z"/>
<path d="M5060 2491 c-16 -30 -12 -107 6 -125 33 -33 54 -8 54 64 0 55 -11 80
-37 80 -7 0 -17 -9 -23 -19z"/>
<path d="M5061 2221 c-13 -24 -15 -509 -2 -529 4 -8 19 -12 32 -10 l24 3 0
275 0 275 -22 3 c-14 2 -26 -4 -32 -17z"/>
</g>
</svg>
